<svg xmlns="http://www.w3.org/2000/svg" width="70" height="70" data-color="color-2" viewBox="0 0 80 80"><title>box</title><rect data-element="frame" x="0" y="0" width="74" height="74" rx="37" ry="37" stroke="none" fill="#F7F7F7" transform="translate(3 3)"></rect><g stroke-linecap="round" class="nc-icon-wrapper" fill="none" stroke="#412581" stroke-width="6" stroke-linejoin="round" transform="translate(14.8 14.8) scale(0.6)"><g transform="translate(3 3)"><path d="M51.71 53.92l7.76-16.65a4.59 4.59 0 0 0-0.41-4.57l-10.68-15.14a4.59 4.59 0 0 0-4.16-1.92l-18.46 1.54a4.59 4.59 0 0 0-3.76 2.61l-7.76 16.65a4.59 4.59 0 0 0 0.41 4.57l10.68 15.13a4.59 4.59 0 0 0 4.15 1.93l18.47-1.54a4.59 4.59 0 0 0 3.76-2.61z" stroke="#412581"></path><path d="M23.58 17.89l13.27 18.99 23.06-2.05" stroke="#412581"></path><path d="M27.08 57.84l9.77-20.99" stroke="#412581"></path></g></g></svg>