<svg xmlns="http://www.w3.org/2000/svg" width="74" height="74"><g transform="translate(0 0)"><g stroke-linejoin="round" stroke-linecap="round" stroke-width="6" fill="none" stroke="#F7F7F7" class="nc-icon-wrapper"><path d="M51.71 53.92l7.76-16.65a4.59 4.59 0 0 0-0.41-4.57l-10.68-15.14a4.59 4.59 0 0 0-4.16-1.92l-18.46 1.54a4.59 4.59 0 0 0-3.76 2.61l-7.76 16.65a4.59 4.59 0 0 0 0.41 4.57l10.68 15.13a4.59 4.59 0 0 0 4.15 1.93l18.47-1.54a4.59 4.59 0 0 0 3.76-2.61z" stroke="#F7F7F7"></path><path d="M23.58 17.89l13.27 18.99 23.06-2.05" stroke="#F7F7F7"></path><path d="M27.08 57.84l9.77-20.99" stroke="#F7F7F7"></path></g></g></svg>